<svg xmlns="http://www.w3.org/2000/svg" xmlns:xlink="http://www.w3.org/1999/xlink" width="375" height="304" viewBox="0 0 375 304">
    <defs>
        <linearGradient id="b" x1="56.406%" x2="56.406%" y1="-82.294%" y2="60.877%">
            <stop offset="0%" stop-color="#48505A"/>
            <stop offset="100%" stop-color="#2F3640"/>
        </linearGradient>
        <path id="a" d="M0 0h375v304H0z"/>
    </defs>
    <g fill="none" fill-rule="evenodd">
        <mask id="c" fill="#fff">
            <use xlink:href="#a"/>
        </mask>
        <use fill="url(#b)" xlink:href="#a"/>
        <path fill="#FFF" fill-rule="nonzero" d="M13.779 190L17 200.412 8 217l5.779-27zM43 200.412L46.222 190 52 217l-9-16.588zM42.252 202L53 221.725 32 235l10.252-33zM28 235L7 221.725 17.747 202 28 235zm1.5-54L40 200.246 29.5 234 19 200.246 29.5 181zm-.5-1.767L18.57 198 15 186.735 29 167v12.233zM31 167l14 19.735L41.43 198 31 179.233V167zm23.978 55.088l-7.918-35.78a.924.924 0 0 0-.15-.338L30.733 163.38A.902.902 0 0 0 30 163c-.29 0-.562.14-.732.379L13.09 185.97a.924.924 0 0 0-.151.338l-7.918 35.78a.924.924 0 0 0 .414.986l24.095 14.794c.01.006.022.01.033.017.015.008.031.017.047.024.025.013.05.023.077.033l.047.017a.888.888 0 0 0 .087.021l.044.01a.89.89 0 0 0 .268 0l.044-.01a.86.86 0 0 0 .086-.021l.049-.017a.914.914 0 0 0 .076-.033c.016-.007.031-.016.047-.024.01-.006.022-.01.033-.017l24.095-14.794a.923.923 0 0 0 .414-.986zM275.852 304L285 287.139 277.842 264l-8.561 40h-4.267l10.612-48.1c.06-.272.175-.528.335-.753l35.913-50.304A2 2 0 0 1 313.5 204a2 2 0 0 1 1.626.843l35.913 50.304c.16.225.274.48.334.753l10.613 48.1h-4.266l-8.561-40L342 287.139 351.148 304h-3.036l-7.166-13-4.086 13h-6.223L336 286.85 312.5 244 289 286.85l5.363 17.15h-4.223l-4.086-13-7.167 13h-3.035zM311 240.229V213l-31 43.926L287.904 282 311 240.229zM316 213v27.229L339.095 282 347 256.926 316 213z" mask="url(#c)" opacity=".1"/>
    </g>
</svg>
