<?xml version="1.0" encoding="UTF-8"?>
<svg width="108px" height="108px" viewBox="0 0 108 108" version="1.1" xmlns="http://www.w3.org/2000/svg" xmlns:xlink="http://www.w3.org/1999/xlink">
    <!-- Generator: Sketch 56 (81588) - https://sketch.com -->
    <title>Lumeos_icon@2x</title>
    <desc>Created with Sketch.</desc>
    <defs>
        <linearGradient x1="156.058401%" y1="151.756154%" x2="-80.9696765%" y2="-75.6573306%" id="linearGradient-1">
            <stop stop-color="#3F6DF4" offset="0%"></stop>
            <stop stop-color="#28FFE2" offset="100%"></stop>
        </linearGradient>
        <linearGradient x1="173.649288%" y1="175.9293%" x2="-213.823665%" y2="-226.47328%" id="linearGradient-2">
            <stop stop-color="#0000DF" offset="0%"></stop>
            <stop stop-color="#28D4E2" offset="100%"></stop>
        </linearGradient>
        <linearGradient x1="112.049399%" y1="192.442999%" x2="28.6838107%" y2="4.26369075%" id="linearGradient-3">
            <stop stop-color="#0000DF" offset="0%"></stop>
            <stop stop-color="#28D4E2" offset="100%"></stop>
        </linearGradient>
        <linearGradient x1="161.243009%" y1="156.724288%" x2="-75.7997762%" y2="-70.7125208%" id="linearGradient-4">
            <stop stop-color="#3F6DF4" offset="0%"></stop>
            <stop stop-color="#28FFE2" offset="100%"></stop>
        </linearGradient>
        <linearGradient x1="226.338345%" y1="219.169367%" x2="-10.6897323%" y2="-8.21467339%" id="linearGradient-5">
            <stop stop-color="#3F6DF4" offset="0%"></stop>
            <stop stop-color="#28FFE2" offset="100%"></stop>
        </linearGradient>
        <linearGradient x1="89.7610812%" y1="88.1605567%" x2="-147.234114%" y2="-139.252784%" id="linearGradient-6">
            <stop stop-color="#3F6DF4" offset="0%"></stop>
            <stop stop-color="#28FFE2" offset="100%"></stop>
        </linearGradient>
    </defs>
    <g id="Lumeos_icon" stroke="none" stroke-width="1" fill="none" fill-rule="evenodd">
        <g id="Group">
            <path d="M68.8994043,7.97208511 C59.8005957,16.7591489 59.5478298,31.2579574 68.3341277,40.356766 L68.3341277,40.356766 C77.1219574,49.4563404 91.62,49.7098723 100.719574,40.9220426 L100.719574,40.9220426 C109.818383,32.1357447 110.071915,17.6361702 101.284851,8.5373617 L101.284851,8.5373617 C96.7909787,3.88340426 90.8034894,1.54417021 84.8068085,1.54417021 L84.8068085,1.54417021 C79.0797447,1.54417021 73.3450213,3.67965957 68.8994043,7.97208511" id="Fill-1" fill="url(#linearGradient-1)"></path>
            <path d="M42.5734468,72.5017021 C47.0228936,79.9506383 46.8589787,89.3481702 42.1521702,96.6370213 L42.1521702,96.6370213 C45.7705532,94.1445957 54.9520851,89.6009362 65.6157447,97.9230638 L65.6157447,97.9230638 C60.4102979,90.053617 60.5902979,79.7185532 66.0676596,72.036 L66.0676596,72.036 C55.1198298,79.9805106 46.1022128,75.1189787 42.5734468,72.5017021" id="Fill-4" fill="url(#linearGradient-2)"></path>
            <path d="M9.96510638,65.3346383 C17.7081702,60.0181277 27.9551489,60.0104681 35.6913191,65.2274043 L35.6913191,65.2274043 C28.9156596,55.1029787 32.7791489,46.8137872 35.4408511,43.0046809 L35.4408511,43.0046809 C28.1826383,46.9723404 19.2584681,46.7080851 12.24,42.2708936 L12.24,42.2708936 C14.7385532,46.3427234 18.251234,55.2615319 9.96510638,65.3346383" id="Fill-7" fill="url(#linearGradient-3)"></path>
            <path d="M9.96510638,65.3346383 C8.92570213,66.0469787 7.92995745,66.8504681 6.99319149,67.7550638 L6.99319149,67.7550638 C2.35914894,72.2297872 0.0199148936,78.1858723 2.13162821e-14,84.1557447 L2.13162821e-14,84.1557447 L2.13162821e-14,84.3135319 C0.0199148936,90.0145532 2.15540426,95.7155745 6.42868085,100.139745 L6.42868085,100.139745 C15.2149787,109.238553 29.7145532,109.491319 38.8133617,100.705021 L38.8133617,100.705021 C40.1078298,99.4549787 41.2161702,98.0862128 42.1521702,96.6370213 L42.1521702,96.6370213 C46.8589787,89.3481702 47.0228936,79.9506383 42.5734468,72.5017021 L42.5734468,72.5017021 C41.6895319,71.0211064 40.6279149,69.6140426 39.3786383,68.3203404 L39.3786383,68.3203404 C38.2381277,67.139234 36.9995745,66.1105532 35.6913191,65.2274043 L35.6913191,65.2274043 C31.8439149,62.6338723 27.3760851,61.3309787 22.9036596,61.3309787 L22.9036596,61.3309787 C18.3829787,61.3309787 13.8577021,62.6614468 9.96510638,65.3346383" id="Fill-10" fill="url(#linearGradient-4)"></path>
            <path d="M24.3444255,-2.84217094e-14 C18.6564255,0.029106383 12.9699574,2.16459574 8.55421277,6.42791489 L8.55421277,6.42791489 C-0.544595745,15.2142128 -0.797361702,29.7137872 7.98893617,38.8125957 L7.98893617,38.8125957 C9.29182979,40.1622128 10.7226383,41.3119149 12.24,42.2708936 L12.24,42.2708936 C19.2584681,46.7080851 28.1826383,46.9723404 35.4408511,43.0046809 L35.4408511,43.0046809 C37.1994894,42.0434043 38.8631489,40.8377872 40.374383,39.3786383 L40.374383,39.3786383 C49.4731915,30.5915745 49.7267234,16.092 40.9396596,6.99319149 L40.9396596,6.99319149 C36.4748936,2.36987234 30.5341277,0.0306382979 24.5780426,-2.84217094e-14 L24.5780426,-2.84217094e-14 L24.3444255,-2.84217094e-14 Z" id="Fill-13" fill="url(#linearGradient-5)"></path>
            <path d="M68.8189787,68.8335319 C67.7857021,69.8323404 66.8719149,70.9069787 66.0676596,72.036 L66.0676596,72.036 C60.5902979,79.7185532 60.4102979,90.053617 65.6157447,97.9230638 L65.6157447,97.9230638 C66.3809362,99.0796596 67.2564255,100.184936 68.2537021,101.218979 L68.2537021,101.218979 C72.7276596,105.851489 78.6837447,108.191489 84.6520851,108.21217 L84.6520851,108.21217 L84.8106383,108.21217 C90.5116596,108.193021 96.2134468,106.057532 100.638383,101.783489 L100.638383,101.783489 C109.737957,92.9971915 109.991489,78.497617 101.20366,69.3988085 L101.20366,69.3988085 C96.7105532,64.745617 90.7215319,62.406383 84.726383,62.405617 L84.726383,62.405617 C78.9985532,62.405617 73.2645957,64.5411064 68.8189787,68.8335319" id="Fill-16" fill="url(#linearGradient-6)"></path>
        </g>
    </g>
</svg>