<svg width="76" height="100" viewBox="0 0 76 100" fill="none" xmlns="http://www.w3.org/2000/svg">
<path d="M4 68.4615L10.5385 42.3076L72 71.0768L66.7692 44.923" stroke="#333333" stroke-width="7" stroke-linecap="round" stroke-linejoin="round"/>
<path d="M37.9277 7L40.7741 4.96336L37.9024 0.949809L35.0643 4.98725L37.9277 7ZM20.8719 31.2638L18.0085 29.251L17.6458 29.7671L17.486 30.3773L20.8719 31.2638ZM55.2886 31.2638L58.7174 30.5613L58.568 29.8323L58.135 29.2272L55.2886 31.2638ZM19.6923 35.7692L16.3064 34.8827L15.5776 37.6664L18.1678 38.9198L19.6923 35.7692ZM60.2307 55.3846L58.7063 58.5352L65.0809 61.6197L63.6595 54.6821L60.2307 55.3846ZM35.0643 4.98725L18.0085 29.251L23.7352 33.2765L40.791 9.01275L35.0643 4.98725ZM58.135 29.2272L40.7741 4.96336L35.0813 9.03664L52.4422 33.3004L58.135 29.2272ZM17.486 30.3773L16.3064 34.8827L23.0781 36.6557L24.2577 32.1503L17.486 30.3773ZM63.6595 54.6821L58.7174 30.5613L51.8599 31.9663L56.802 56.0871L63.6595 54.6821ZM18.1678 38.9198L58.7063 58.5352L61.7552 52.2341L21.2167 32.6187L18.1678 38.9198Z" fill="#333333"/>
<path d="M11.8462 80.4473L8.42808 79.6946L7.88389 82.166L10.0602 83.4573L11.8462 80.4473ZM37.9278 95.9232L36.1417 98.9332L37.9228 99.99L39.7065 98.9375L37.9278 95.9232ZM64.1539 80.4473L65.9326 83.4616L68.6583 81.8532L67.3314 78.98L64.1539 80.4473ZM17.077 56.6924L18.5321 53.5092L14.5908 51.7075L13.6588 55.9397L17.077 56.6924ZM62.8462 77.6155L66.0238 76.1481L65.4803 74.9712L64.3013 74.4323L62.8462 77.6155ZM10.0602 83.4573L36.1417 98.9332L39.7138 92.9131L13.6322 77.4373L10.0602 83.4573ZM39.7065 98.9375L65.9326 83.4616L62.3752 77.433L36.149 92.9088L39.7065 98.9375ZM13.6588 55.9397L8.42808 79.6946L15.2643 81.2L20.4951 57.445L13.6588 55.9397ZM67.3314 78.98L66.0238 76.1481L59.6686 79.0828L60.9763 81.9146L67.3314 78.98ZM15.6218 59.8755L61.391 80.7986L64.3013 74.4323L18.5321 53.5092L15.6218 59.8755Z" fill="#333333"/>
<path d="M38 7V29.2308" stroke="#333333" stroke-width="7"/>
<path d="M38 95.9233L44.9634 69.1411" stroke="#333333" stroke-width="7"/>
<path d="M36.6924 94.6152L28.5193 61.9229" stroke="#333333" stroke-width="7"/>
<path d="M38 25.3076L49.5141 50.1538" stroke="#333333" stroke-width="7"/>
<path d="M37.9986 25.3076L30.8997 40.9999" stroke="#333333" stroke-width="7"/>
</svg>
