<svg xmlns="http://www.w3.org/2000/svg" width="21" height="24" viewBox="0 0 21 24">
    <path fill="#FF5600" fill-rule="nonzero" d="M5.865 23.97c-1.598-3.324-.747-5.229.48-7.023 1.346-1.966 1.692-3.911 1.692-3.911s1.057 1.374.634 3.523c1.868-2.079 2.22-5.39 1.938-6.659 4.22 2.95 6.025 9.337 3.594 14.07 12.93-7.316 3.216-18.262 1.525-19.495.564 1.233.67 3.32-.468 4.333C13.332 1.498 8.566 0 8.566 0c.563 3.77-2.044 7.892-4.558 10.972-.088-1.503-.182-2.54-.973-3.979C2.858 9.723.771 11.95.206 14.686c-.766 3.705.573 6.418 5.659 9.284z"/>
</svg>
