<svg xmlns="http://www.w3.org/2000/svg" width="38" height="117" viewBox="0 0 38 117">
    <g fill="none" fill-rule="evenodd">
        <path fill="#FDC00F" d="M7.057 8.662C3.741 5.032 1.988.73 2.491.142c.502-.589 5.355.607 8.944 4.537 3.59 3.928 3.383 6.12 2.081 7.107-1.302.988-3.144.506-6.459-3.124zm5.824 6.393c3.973 1.512 4.933 3.63 4.53 5.314-.403 1.685-1.938 2.296-5.68.742-3.741-1.554-6.46-4.557-6.363-5.337.097-.78 3.54-2.23 7.513-.719zm5.76 9.573c3.656 2.046 4.269 4.253 3.604 5.842-.663 1.587-2.276 1.958-5.71-.103-3.433-2.06-5.606-5.371-5.382-6.117.223-.746 3.832-1.667 7.488.378zm4.148 10.186c3.286 2.536 3.553 4.79 2.656 6.249-.898 1.46-2.55 1.583-5.622-.941-3.071-2.523-4.693-6.078-4.355-6.773.338-.696 4.034-1.073 7.32 1.465zm2.533 10.593c2.865 2.979 2.794 5.238 1.688 6.543-1.105 1.304-2.757 1.177-5.417-1.763-2.661-2.941-3.721-6.668-3.281-7.3.439-.633 4.145-.46 7.01 2.52zm.921 10.805c2.391 3.367 1.987 5.591.7 6.716-1.286 1.125-2.901.751-5.096-2.553-2.195-3.304-2.69-7.135-2.161-7.692.529-.558 4.166.164 6.557 3.53zm-.69 10.821c1.863 3.692 1.131 5.841-.31 6.765-1.44.923-2.98.309-4.657-3.296-1.678-3.607-1.6-7.471-.995-7.945.605-.472 4.097.784 5.961 4.476zM23.25 77.668c1.285 3.951.228 5.983-1.34 6.69-1.568.707-2.994-.137-4.101-3.978-1.106-3.839-.45-7.67.22-8.048.67-.379 3.937 1.387 5.22 5.336zm-3.917 10.256c.652 4.134-.721 6.01-2.392 6.485-1.67.475-2.945-.58-3.428-4.583-.484-4.004.762-7.725 1.483-8.002.72-.278 3.684 1.966 4.337 6.1zm-5.53 9.672c-.031 4.235-1.717 5.916-3.464 6.15-1.744.233-2.83-1.015-2.637-5.1.192-4.085 2.03-7.623 2.792-7.795.759-.17 3.342 2.51 3.31 6.745zm-7.142 8.892c-.768 4.248-2.766 5.697-4.558 5.679-1.791-.018-2.65-1.431-1.73-5.51.92-4.077 3.36-7.362 4.148-7.423.786-.06 2.908 3.005 2.14 7.254z"/>
        <path fill="#FC0" d="M16.876 12.213c-.274-4.437 1.466-7.728 2.343-7.538.876.19 3.931 4.7 4.016 9.295.086 4.596-1.507 5.424-3.198 4.884-1.687-.54-2.887-2.203-3.16-6.641zm6.15 10.221c.453-4.362 2.707-7.312 3.536-7 .827.31 3.083 5.136 2.434 9.633-.65 4.5-2.346 5.078-3.924 4.305-1.576-.772-2.497-2.575-2.045-6.938zm4.43 10.876c1.125-4.202 3.816-6.752 4.582-6.329.766.424 2.232 5.473.9 9.783-1.333 4.312-3.092 4.632-4.534 3.64-1.44-.992-2.074-2.893-.948-7.094zm2.705 11.312c1.747-3.961 4.795-6.062 5.487-5.534.692.529 1.375 5.702-.588 9.745-1.962 4.043-3.749 4.1-5.026 2.908-1.275-1.19-1.62-3.158.127-7.12zm.984 11.537c2.315-3.646 5.643-5.26 6.249-4.636.605.624.51 5.822-2.028 9.526-2.541 3.703-4.317 3.493-5.402 2.125-1.084-1.368-1.134-3.368 1.18-7.015zm-.738 11.555c2.83-3.266 6.362-4.364 6.867-3.657.506.709-.357 5.84-3.422 9.136-3.063 3.292-4.79 2.82-5.658 1.3-.868-1.52-.618-3.513 2.213-6.78zm-2.46 11.356c3.295-2.825 6.948-3.385 7.342-2.605.395.778-1.231 5.748-4.767 8.571-3.538 2.826-5.175 2.102-5.8.455-.623-1.645-.07-3.593 3.226-6.421zm-4.181 10.951c3.706-2.33 7.403-2.343 7.674-1.509.27.835-2.112 5.551-6.07 7.85-3.956 2.3-5.468 1.334-5.822-.405-.353-1.737.512-3.605 4.218-5.936zm-5.904 10.328c4.064-1.789 7.73-1.252 7.862-.377.133.875-2.996 5.242-7.321 6.967-4.325 1.725-5.674.537-5.73-1.258-.056-1.795 1.125-3.543 5.189-5.332zm-7.628 9.494c4.37-1.204 7.925-.128 7.908.768-.017.898-3.888 4.824-8.527 5.933-4.64 1.11-5.786-.278-5.519-2.094.267-1.813 1.77-3.403 6.138-4.607z"/>
    </g>
</svg>
