<svg xmlns="http://www.w3.org/2000/svg" width="49" height="36" viewBox="0 0 49 36">
    <g fill="none" fill-rule="evenodd">
        <path fill="#F9566D" d="M5 0h43.605L0 35.985V5a5 5 0 0 1 5-5z"/>
        <path fill="#FAFAFA" fill-rule="nonzero" d="M14.342 9.781h2.086a.695.695 0 0 1 0 1.39h-2.086v1.391h2.086a.695.695 0 0 1 0 1.39h-2.781a.695.695 0 0 1-.695-.695V7.696c0-.384.311-.695.695-.695h2.78a.695.695 0 0 1 0 1.39h-2.085v1.39zm-3.476 4.171a.695.695 0 0 1-.556-.278L7.39 9.781v3.476a.695.695 0 0 1-1.39 0V7.696a.695.695 0 0 1 1.251-.417l2.92 3.893V7.696a.695.695 0 0 1 1.39 0v5.561a.695.695 0 0 1-.695.695zm12.514 0a.695.695 0 0 1-.66-.475l-.73-2.193-.73 2.193a.665.665 0 0 1-.688.474.695.695 0 0 1-.648-.525l-1.39-5.562a.696.696 0 0 1 1.35-.336l.81 3.245.636-1.906a.724.724 0 0 1 1.32 0l.635 1.906.81-3.245a.696.696 0 1 1 1.35.336l-1.39 5.562a.695.695 0 0 1-.648.525l-.027.001z"/>
    </g>
</svg>
