<svg xmlns="http://www.w3.org/2000/svg" width="375" height="371" viewBox="0 0 375 371">
    <g fill="none" fill-rule="evenodd">
        <path fill="#0052C3" d="M0 0h375v310H0z"/>
        <path fill="#FFF" fill-rule="nonzero" d="M-1.221 170L2 180.412-7 197l5.779-27zM28 180.412L31.222 170 37 197l-9-16.588zM27.252 182L38 201.725 17 215l10.252-33zM13 215l-21-13.275L2.747 182 13 215zm1.5-54L25 180.246 14.5 214 4 180.246 14.5 161zm-.5-1.767L3.57 178 0 166.735 14 147v12.233zM16 147l14 19.735L26.43 178 16 159.233V147zm23.978 55.088l-7.918-35.78a.924.924 0 0 0-.15-.338L15.733 143.38A.902.902 0 0 0 15 143c-.29 0-.562.14-.732.379L-1.91 165.97a.924.924 0 0 0-.151.338l-7.918 35.78a.924.924 0 0 0 .414.986l24.095 14.794c.01.006.022.01.033.017.015.008.031.017.047.024.025.013.05.023.077.033l.047.017a.888.888 0 0 0 .087.021l.044.01a.89.89 0 0 0 .268 0l.044-.01a.86.86 0 0 0 .086-.021l.049-.017a.914.914 0 0 0 .076-.033c.016-.007.031-.016.047-.024.01-.006.022-.01.033-.017l24.095-14.794a.923.923 0 0 0 .414-.986zM284.842 264L292 287.139 272 324l12.842-60zM349 287.139L356.159 264 369 324l-20-36.861zM347.946 291L372 334.634 325 364l22.946-73zM316 364l-47-29.366L293.054 291 316 364zm3.5-120l23.5 42.85L319.5 362 296 286.85 319.5 244zm-1.5-3.771L294.904 282 287 256.926 318 213v27.229zM323 213l31 43.926L346.095 282 323 240.229V213zm52.951 122.57l-17.578-79.67a2.06 2.06 0 0 0-.334-.753l-35.913-50.304A2 2 0 0 0 320.5 204a2 2 0 0 0-1.626.843l-35.913 50.304c-.16.225-.274.48-.335.753l-17.577 79.67a2.06 2.06 0 0 0 .92 2.195l53.49 32.94c.024.015.049.025.073.038a1.843 1.843 0 0 0 .275.128 1.967 1.967 0 0 0 .298.085c.032.006.065.016.097.02a1.971 1.971 0 0 0 .595 0c.034-.004.065-.014.098-.02.065-.014.129-.028.192-.048.036-.01.071-.024.108-.037.056-.022.113-.046.169-.073.035-.017.07-.036.104-.055.024-.013.049-.023.073-.037l53.491-32.941a2.058 2.058 0 0 0 .919-2.196z" opacity=".1"/>
    </g>
</svg>
