<svg xmlns="http://www.w3.org/2000/svg" xmlns:xlink="http://www.w3.org/1999/xlink" width="1440" height="752" viewBox="0 0 1440 752">
    <defs>
        <path id="a" d="M0 0h1440v777H0z"/>
        <linearGradient id="e" x1="37.112%" x2="37.112%" y1="-3.06%" y2="97.142%">
            <stop offset="0%" stop-color="#0052C3"/>
            <stop offset="100%" stop-color="#0752BA"/>
        </linearGradient>
        <path id="d" d="M0 167h1440v495.976c-74.339-57.997-155.794 36.82-224.93 34.998-303.737-8.008-864.993-331.142-893.007-46.52C310.457 769.357 155.132 446.986 0 648.558V167z"/>
        <filter id="c" width="123.9%" height="164.8%" x="-11.9%" y="-32%" filterUnits="objectBoundingBox">
            <feOffset dy="2" in="SourceAlpha" result="shadowOffsetOuter1"/>
            <feGaussianBlur in="shadowOffsetOuter1" result="shadowBlurOuter1" stdDeviation="57"/>
            <feColorMatrix in="shadowBlurOuter1" values="0 0 0 0 0 0 0 0 0 0 0 0 0 0 0 0 0 0 0.301764642 0"/>
        </filter>
        <linearGradient id="h" x1="37.112%" x2="37.112%" y1="-3.06%" y2="97.142%">
            <stop offset="0%" stop-color="#0052C3"/>
            <stop offset="100%" stop-color="#0752BA"/>
        </linearGradient>
        <path id="g" d="M0 91h1440v450.061c-122.781 171.023-307.324-75.023-441.594-107.015C728.87 369.826 0 822.1 0 232.02V91z"/>
        <filter id="f" width="123.9%" height="167.5%" x="-11.9%" y="-33.3%" filterUnits="objectBoundingBox">
            <feOffset dy="2" in="SourceAlpha" result="shadowOffsetOuter1"/>
            <feGaussianBlur in="shadowOffsetOuter1" result="shadowBlurOuter1" stdDeviation="57"/>
            <feColorMatrix in="shadowBlurOuter1" values="0 0 0 0 0 0 0 0 0 0 0 0 0 0 0 0 0 0 0.301764642 0"/>
        </filter>
        <linearGradient id="k" x1="37.112%" x2="37.112%" y1="-3.06%" y2="97.142%">
            <stop offset="0%" stop-color="#0052C3"/>
            <stop offset="100%" stop-color="#0752BA"/>
        </linearGradient>
        <path id="j" d="M0 0h1440v449.987C1064.555 1014.971 406.078 90.997 0 522.985V0z"/>
        <filter id="i" width="123.9%" height="153.8%" x="-11.9%" y="-26.6%" filterUnits="objectBoundingBox">
            <feOffset dy="2" in="SourceAlpha" result="shadowOffsetOuter1"/>
            <feGaussianBlur in="shadowOffsetOuter1" result="shadowBlurOuter1" stdDeviation="57"/>
            <feColorMatrix in="shadowBlurOuter1" values="0 0 0 0 0 0 0 0 0 0 0 0 0 0 0 0 0 0 0.301764642 0"/>
        </filter>
        <linearGradient id="n" x1="37.112%" x2="37.112%" y1="-3.06%" y2="97.142%">
            <stop offset="0%" stop-color="#0052C3"/>
            <stop offset="100%" stop-color="#0752BA"/>
        </linearGradient>
        <path id="m" d="M0 54h1440v274c-63.734 302-264.75-105.008-201.445 130 23.771 88.248-605.28-251.23-838.22-94C92.97 571.467 89.775 164.44 0 498V54z"/>
        <filter id="l" width="123.9%" height="177.5%" x="-11.9%" y="-38.3%" filterUnits="objectBoundingBox">
            <feOffset dy="2" in="SourceAlpha" result="shadowOffsetOuter1"/>
            <feGaussianBlur in="shadowOffsetOuter1" result="shadowBlurOuter1" stdDeviation="57"/>
            <feColorMatrix in="shadowBlurOuter1" values="0 0 0 0 0 0 0 0 0 0 0 0 0 0 0 0 0 0 0.301764642 0"/>
        </filter>
    </defs>
    <g fill="none" fill-rule="evenodd">
        <mask id="b" fill="#fff">
            <use xlink:href="#a"/>
        </mask>
        <g mask="url(#b)">
            <g transform="translate(0 -44)">
                <use fill="#000" filter="url(#c)" xlink:href="#d"/>
                <use fill="url(#e)" xlink:href="#d"/>
            </g>
            <path fill="#FFF" fill-rule="nonzero" d="M1401.853 557l2.147 6.942-6 11.058 3.853-18zm20.147 6.942l2.148-6.942 3.852 18-6-11.058zm-.165.058l7.165 13.15-14 8.85 6.835-22zM1411 586l-14-8.85 7.165-13.15 6.835 22zm2-36l7 13.073-7 22.927-7-22.927 7-13.073zm0-.713L1405.55 562l-2.55-7.631L1413 541v8.287zm0-8.287l10 13.369-2.55 7.631-7.45-12.713V541zm16.985 37.18l-5.384-24.33a.628.628 0 0 0-.103-.23l-11-15.363a.613.613 0 0 0-.996 0l-11 15.363a.629.629 0 0 0-.103.23l-5.384 24.33a.628.628 0 0 0 .282.67l16.384 10.06.023.012a.568.568 0 0 0 .084.039l.032.011c.02.006.04.01.059.014l.03.007a.606.606 0 0 0 .182 0l.03-.007a.584.584 0 0 0 .059-.014l.033-.011a.622.622 0 0 0 .052-.023l.032-.016.022-.012 16.385-10.06a.628.628 0 0 0 .281-.67z" opacity=".1"/>
            <g transform="translate(0 -44)">
                <use fill="#000" filter="url(#f)" xlink:href="#g"/>
                <use fill="url(#h)" xlink:href="#g"/>
            </g>
            <path fill="#FFF" fill-rule="nonzero" d="M160.916 371L167 390.282 150 421l10.916-50zM213 390.282L219.085 371 230 421l-17-30.718zm-.448 2.718L232 428.864 194 453l18.552-60zM186 453l-38-24.136L167.448 393 186 453zm3-99l19 35.225L189 451l-19-61.775L189 354zm-1-2.506L168.63 386 162 365.286 188 329v22.494zM192 329l26 36.286L211.37 386 192 351.494V329zm43.96 100.722l-14.57-65.835a1.7 1.7 0 0 0-.276-.622l-29.766-41.568A1.66 1.66 0 0 0 190 321c-.533 0-1.035.259-1.348.697l-29.765 41.568a1.701 1.701 0 0 0-.278.622l-14.569 65.835a1.7 1.7 0 0 0 .763 1.814l44.334 27.22c.02.012.04.02.06.032a1.529 1.529 0 0 0 .229.105c.029.011.057.022.087.031.053.017.106.028.16.04.026.005.053.013.08.017a1.639 1.639 0 0 0 .493 0c.028-.004.054-.012.081-.018.054-.01.107-.022.16-.039.03-.009.059-.02.089-.03.047-.019.094-.038.14-.06l.087-.046c.019-.011.04-.02.06-.031l44.335-27.22a1.698 1.698 0 0 0 .761-1.815zM37.853 485L40 492.327 34 504l3.853-19zM59 492.327L61.148 485 65 504l-6-11.673zm-.677.673L66 506.748 51 516l7.323-23zM49 516l-15-9.252L41.677 493 49 516zm-.5-37l7.5 13.436L48.5 516 41 492.436 48.5 479zm.5-1.318L41.55 491 39 483.005 49 469v8.682zM50 469l10 14.005L57.45 491 50 477.682V469zm16.985 38.756l-5.543-25.285a.656.656 0 0 0-.105-.239l-11.324-15.964A.63.63 0 0 0 49.5 466a.63.63 0 0 0-.513.268l-11.324 15.964a.656.656 0 0 0-.105.24l-5.543 25.284a.656.656 0 0 0 .29.696l16.867 10.455.023.012a.568.568 0 0 0 .087.04l.033.012.06.015.031.007a.618.618 0 0 0 .188 0l.03-.007a.597.597 0 0 0 .061-.015l.034-.012a.637.637 0 0 0 .053-.023l.033-.017.023-.012 16.867-10.455a.655.655 0 0 0 .29-.696z" opacity=".1"/>
            <g transform="translate(0 -44)">
                <use fill="#000" filter="url(#i)" xlink:href="#j"/>
                <use fill="url(#k)" xlink:href="#j"/>
            </g>
            <path fill="#FFF" fill-rule="nonzero" d="M1285.421 449l3.579 10.798L1279 477l6.421-28zM1316 459.798l3.58-10.798 6.42 28-10-17.202zm-.26 1.202l11.26 20.323L1305 495l10.74-34zM1300 495l-22-13.677L1289.26 461l10.74 34zm2-56l11 20.336L1302 495l-11-35.664L1302 439zm0-1.977L1290.825 457 1287 445.008 1302 424v13.023zm1-13.023l15 21.008-3.825 11.992L1303 437.023V424zm25.977 58.24l-8.393-37.689a.97.97 0 0 0-.16-.356l-17.147-23.796a.958.958 0 0 0-1.553 0l-17.148 23.796a.97.97 0 0 0-.16.356l-8.393 37.688a.97.97 0 0 0 .44 1.039l25.54 15.583.035.018.05.025a.867.867 0 0 0 .081.035l.05.018c.031.01.061.016.092.022.016.003.031.008.047.01a.95.95 0 0 0 .284 0c.016-.002.031-.007.046-.01a.916.916 0 0 0 .092-.022l.052-.018a.97.97 0 0 0 .08-.035l.05-.025c.011-.007.023-.012.035-.018l25.54-15.583a.97.97 0 0 0 .44-1.039z" opacity=".1"/>
            <g transform="translate(0 -44)">
                <use fill="#000" filter="url(#l)" xlink:href="#m"/>
                <use fill="url(#n)" xlink:href="#m"/>
            </g>
            <path fill="#FFF" fill-rule="nonzero" d="M58.779 171L62 181.412 53 198l5.779-27zM88 181.412L91.222 171 97 198l-9-16.588zM87.252 183L98 202.725 77 216l10.252-33zM73 216l-21-13.275L62.747 183 73 216zm1.5-54L85 181.246 74.5 215 64 181.246 74.5 162zm-.5-1.767L63.57 179 60 167.735 74 148v12.233zM76 148l14 19.735L86.43 179 76 160.233V148zm23.978 55.088l-7.918-35.78a.924.924 0 0 0-.15-.338L75.733 144.38A.902.902 0 0 0 75 144c-.29 0-.562.14-.732.379L58.09 166.97a.924.924 0 0 0-.151.338l-7.918 35.78a.924.924 0 0 0 .414.986l24.095 14.794c.01.006.022.01.033.017.015.008.031.017.047.024.025.013.05.023.077.033l.047.017a.888.888 0 0 0 .087.021l.044.01a.89.89 0 0 0 .268 0l.044-.01a.86.86 0 0 0 .086-.021l.049-.017a.914.914 0 0 0 .076-.033c.016-.007.031-.016.047-.024.01-.006.022-.01.033-.017l24.095-14.794a.923.923 0 0 0 .414-.986zM294.842 265L302 288.139 282 325l12.842-60zM359 288.139L366.159 265 379 325l-20-36.861zM357.946 292L382 335.634 335 365l22.946-73zM326 365l-47-29.366L303.054 292 326 365zm3.5-120l23.5 42.85L329.5 363 306 287.85 329.5 245zm-1.5-3.771L304.904 283 297 257.926 328 214v27.229zM333 214l31 43.926L356.095 283 333 241.229V214zm52.951 122.57l-17.578-79.67a2.06 2.06 0 0 0-.334-.753l-35.913-50.304A2 2 0 0 0 330.5 205a2 2 0 0 0-1.626.843l-35.913 50.304c-.16.225-.274.48-.335.753l-17.577 79.67a2.06 2.06 0 0 0 .92 2.195l53.49 32.94c.024.015.049.025.073.038a1.843 1.843 0 0 0 .275.128 1.967 1.967 0 0 0 .298.085c.032.006.065.016.097.02a1.971 1.971 0 0 0 .595 0c.034-.004.065-.014.098-.02.065-.014.129-.028.192-.048.036-.01.071-.024.108-.037.056-.022.113-.046.169-.073.035-.017.07-.036.104-.055.024-.013.049-.023.073-.037l53.491-32.941a2.058 2.058 0 0 0 .919-2.196zM1341.263 108L1352 143.094 1322 199l19.263-91zM1440 143.094L1450.738 108 1470 199l-30-55.906zm-3.337 5.906L1473 215.348 1402 260l34.663-111zM1390 260l-71-44.652L1355.336 149 1390 260zm4.5-181l35.5 64.639L1394.5 257 1359 143.639 1394.5 79zm-1.5-6.96L1357.984 135 1346 97.207 1393 31v41.04zm6-41.04l47 66.207L1434.014 135 1399 72.04V31zm80.926 185.536l-26.604-120.22a3.103 3.103 0 0 0-.506-1.136l-54.354-75.908A3.03 3.03 0 0 0 1396 18c-.973 0-1.89.473-2.46 1.272l-54.355 75.908a3.106 3.106 0 0 0-.507 1.136l-26.604 120.22a3.104 3.104 0 0 0 1.392 3.313l80.958 49.707c.037.021.075.037.111.057a2.791 2.791 0 0 0 .416.192c.053.02.105.04.16.057.097.03.193.051.29.071.05.01.1.024.148.031.15.023.301.036.451.036.15 0 .301-.013.45-.036.05-.007.098-.021.147-.03.099-.02.196-.042.291-.072.055-.017.108-.037.163-.057a3.07 3.07 0 0 0 .256-.11c.053-.025.105-.054.159-.082.035-.02.073-.036.11-.057l80.959-49.707a3.101 3.101 0 0 0 1.39-3.313z" opacity=".1"/>
        </g>
    </g>
</svg>
