<svg xmlns="http://www.w3.org/2000/svg" width="37" height="67" viewBox="0 0 37 67">
    <path fill="#5FDBFF" fill-rule="evenodd" d="M15.697 66.981c-2.659.021-5.194-.448-7.447-1.93-.624-.41-1.231-.854-1.672-1.48-.489-.691-.623-1.414-.37-2.231.452-1.461 1.224-2.722 2.445-3.663.823-.634 1.243-.505 1.877.312.9 1.158 2.182 1.711 3.57 2.031 2.122.49 4.13.22 5.889-1.117 1.353-1.03 2.024-2.454 2.185-4.11.288-2.971-1.046-5.23-3.213-7.155-2.564-2.276-5.54-3.977-8.344-5.92-2.051-1.422-4.077-2.881-5.755-4.728C2.174 34.03.523 30.612.104 26.612-.4 21.788.96 17.46 3.491 13.415c2.488-3.974 5.77-7.2 9.79-9.66C16.444 1.822 19.835.464 23.597.098c3.334-.324 6.469.1 9.214 2.123 1.535 1.133 2.61 2.63 3.273 4.411 1.426 3.834 1.155 7.61-.575 11.256-2.604 5.491-6.77 9.526-12.251 12.253-.966.481-2.009.771-3.095.861-2.402.2-3.896-1.08-4.949-3.01-.426-.784-.756-1.614-.6-2.55.077-.466.337-.628.771-.508 2.002.555 3.823-.015 5.514-.98 3.578-2.04 6.391-4.846 8.204-8.526 1.023-2.074 1.326-4.265.356-6.463-.587-1.332-1.726-1.917-3.161-2.1-3.424-.436-6.351.883-9.167 2.51-3.697 2.135-6.584 5.062-8.498 8.862-1.133 2.248-1.684 4.638-1.489 7.15.204 2.627 1.315 4.882 3.017 6.899 1.795 2.125 4.105 3.617 6.36 5.183 2.381 1.652 4.864 3.17 7.083 5.036 2.837 2.387 5.064 5.191 5.638 8.95.63 4.127-.37 7.846-3.178 11.016-2.359 2.663-5.393 4.098-8.94 4.503-.47.054-.95.007-1.426.007"/>
</svg>
