<svg xmlns="http://www.w3.org/2000/svg" width="100" height="48" viewBox="0 0 100 48">
    <g fill="#FFF" fill-rule="nonzero">
        <path d="M28.38 15.881h4.652l4.413 7.872 4.387-7.872h4.625l-7.003 12.003v7.581h-4.15V27.78L28.38 15.881zm28.077 19.584a9.694 9.694 0 0 1-3.879-.747 8.333 8.333 0 0 1-2.906-2.058 9.143 9.143 0 0 1-1.814-3.081 11.312 11.312 0 0 1-.632-3.814c-.01-1.324.203-2.64.632-3.893a9.396 9.396 0 0 1 1.814-3.133 8.336 8.336 0 0 1 2.906-2.098 9.556 9.556 0 0 1 3.88-.76 9.534 9.534 0 0 1 3.891.76 8.368 8.368 0 0 1 2.893 2.098 9.386 9.386 0 0 1 1.815 3.133c.429 1.253.642 2.57.63 3.893a11.329 11.329 0 0 1-.63 3.814 9.136 9.136 0 0 1-1.815 3.081 8.365 8.365 0 0 1-2.893 2.058 9.672 9.672 0 0 1-3.892.747zm0-16.123a4.857 4.857 0 0 0-2.367.537 4.49 4.49 0 0 0-1.577 1.442 6.345 6.345 0 0 0-.88 2.058 10.264 10.264 0 0 0-.277 2.386 9.542 9.542 0 0 0 .276 2.294c.173.715.471 1.394.881 2.006a4.52 4.52 0 0 0 1.577 1.429c.73.376 1.545.56 2.367.536a4.858 4.858 0 0 0 2.367-.537 4.528 4.528 0 0 0 1.577-1.43c.41-.61.709-1.29.881-2.005.185-.75.277-1.52.276-2.293a10.263 10.263 0 0 0-.276-2.387 6.345 6.345 0 0 0-.881-2.058 4.497 4.497 0 0 0-1.577-1.441 4.861 4.861 0 0 0-2.367-.537zm15.989-3.46v16.133h9.011v3.45H68.38V15.881h4.066zm18.242 19.583a9.694 9.694 0 0 1-3.879-.747 8.333 8.333 0 0 1-2.906-2.058 9.143 9.143 0 0 1-1.814-3.081 11.312 11.312 0 0 1-.632-3.814c-.011-1.324.203-2.64.632-3.893a9.396 9.396 0 0 1 1.814-3.133 8.336 8.336 0 0 1 2.906-2.098 9.556 9.556 0 0 1 3.879-.76 9.534 9.534 0 0 1 3.892.76 8.368 8.368 0 0 1 2.893 2.098 9.386 9.386 0 0 1 1.815 3.133c.428 1.253.642 2.57.63 3.893a11.329 11.329 0 0 1-.63 3.814 9.136 9.136 0 0 1-1.815 3.081 8.365 8.365 0 0 1-2.893 2.058 9.672 9.672 0 0 1-3.892.747zm0-16.123a4.854 4.854 0 0 0-2.367.537 4.488 4.488 0 0 0-1.577 1.442 6.345 6.345 0 0 0-.88 2.058 10.264 10.264 0 0 0-.277 2.386 9.542 9.542 0 0 0 .276 2.294c.173.715.471 1.394.881 2.006a4.519 4.519 0 0 0 1.577 1.429c.73.376 1.545.56 2.367.536a4.858 4.858 0 0 0 2.367-.537 4.528 4.528 0 0 0 1.577-1.43c.41-.61.708-1.29.88-2.005.185-.75.278-1.52.277-2.293a10.263 10.263 0 0 0-.276-2.387 6.345 6.345 0 0 0-.881-2.058 4.497 4.497 0 0 0-1.577-1.441 4.861 4.861 0 0 0-2.367-.537zM37.895 45.065a2.49 2.49 0 0 1-.908-.17 1.898 1.898 0 0 1-.445-.246 1.386 1.386 0 0 1-.35-.39h-.022v.694h-.867V37.77h.867v2.688h.02c.14-.285.38-.509.674-.63.32-.133.664-.2 1.01-.196.368-.008.733.068 1.067.221.293.141.551.346.755.599.204.26.358.555.453.87.104.34.156.693.154 1.047.002.355-.048.707-.147 1.047a2.47 2.47 0 0 1-.45.86 2.123 2.123 0 0 1-.754.579c-.333.147-.693.219-1.057.211zm-.143-4.68a1.516 1.516 0 0 0-.745.172c-.199.11-.37.263-.5.448-.132.19-.227.404-.28.63a2.995 2.995 0 0 0 .004 1.454c.056.226.155.44.291.628.136.184.313.333.516.437.238.117.5.174.765.167.26.009.52-.05.75-.172.196-.11.362-.264.485-.452.126-.197.216-.415.265-.644a3.41 3.41 0 0 0 .082-.745c0-.24-.033-.478-.098-.71a1.906 1.906 0 0 0-.295-.618 1.456 1.456 0 0 0-.51-.433 1.579 1.579 0 0 0-.73-.161zm5.612 5.21a5.399 5.399 0 0 1-.305.645c-.088.159-.2.303-.33.428-.117.108-.254.19-.403.242-.166.053-.338.08-.512.077-.104 0-.207-.007-.31-.02a1.484 1.484 0 0 1-.3-.07v-.788c.085.036.173.065.263.086.083.02.168.032.254.035a.77.77 0 0 0 .45-.128.771.771 0 0 0 .273-.358l.362-.876-2.118-5.179h.992l1.56 4.263h.02l1.499-4.263h.929l-2.324 5.905zm7.042-7.826v4.323l2.42-2.31h1.17l-2.103 1.92 2.256 3.363h-1.107l-1.816-2.758-.82.755v2.003h-.872V37.77h.872zm6.42 7.825c-.088.222-.19.438-.306.646-.088.159-.2.303-.332.428a1.13 1.13 0 0 1-.403.242c-.165.053-.338.079-.511.076-.104 0-.208-.006-.31-.02a1.488 1.488 0 0 1-.3-.07v-.787c.085.036.173.065.263.086.083.02.168.032.253.035a.77.77 0 0 0 .452-.128.774.774 0 0 0 .274-.358l.361-.876-2.118-5.179h.992l1.56 4.263h.02l1.499-4.263h.93l-2.325 5.905zm5.685-.529a2.49 2.49 0 0 1-.908-.17 1.898 1.898 0 0 1-.445-.246 1.392 1.392 0 0 1-.351-.39h-.021v.694h-.867V37.77h.867v2.688h.02c.14-.285.38-.509.674-.63.32-.133.663-.2 1.01-.196.367-.008.732.068 1.066.221.294.141.552.346.756.599.203.26.357.555.453.87.103.34.155.693.154 1.047.002.355-.048.707-.148 1.047a2.47 2.47 0 0 1-.449.86 2.123 2.123 0 0 1-.755.579c-.332.147-.693.219-1.056.211zm-.143-4.68a1.516 1.516 0 0 0-.746.172c-.198.11-.37.263-.5.448-.131.19-.226.404-.28.63a2.995 2.995 0 0 0 .005 1.454c.056.226.154.44.29.628.136.184.313.333.516.437.238.117.5.174.766.167.26.009.519-.05.75-.172.195-.11.362-.264.484-.452.126-.197.216-.415.266-.644a3.41 3.41 0 0 0 .081-.745c0-.24-.032-.478-.097-.71a1.906 1.906 0 0 0-.296-.618 1.456 1.456 0 0 0-.51-.433 1.579 1.579 0 0 0-.73-.161zm5.918 4.68a2.923 2.923 0 0 1-1.127-.199 2.217 2.217 0 0 1-.8-.558 2.341 2.341 0 0 1-.488-.856 3.944 3.944 0 0 1-.183-1.084c-.004-.367.06-.732.189-1.076.119-.313.298-.6.528-.844.228-.24.503-.43.807-.56a2.59 2.59 0 0 1 1.022-.199c.418-.015.832.083 1.199.284.306.18.568.426.764.721.191.291.326.616.398.956.071.324.101.655.09.986H66.63c-.008.217.02.434.084.642a1.437 1.437 0 0 0 .838.911c.243.098.503.145.764.14.328.013.651-.074.927-.25a1.2 1.2 0 0 0 .477-.756h.88c-.084.52-.366.987-.786 1.305-.45.305-.986.458-1.53.437zm-.105-4.63a1.635 1.635 0 0 0-.624.116c-.177.072-.34.179-.476.313a1.51 1.51 0 0 0-.314.463 1.681 1.681 0 0 0-.136.563h3.111a1.682 1.682 0 0 0-.142-.568 1.456 1.456 0 0 0-.807-.77 1.602 1.602 0 0 0-.612-.116zm4.068-.623v1.108h.02c.163-.376.423-.702.752-.945a1.853 1.853 0 0 1 1.128-.286v.916a2.32 2.32 0 0 0-.86.143c-.226.085-.424.229-.575.416a1.74 1.74 0 0 0-.317.666 3.68 3.68 0 0 0-.098.899v2.336h-.842v-5.253h.792zM.869 39.5a.768.768 0 0 1-.32-1.187l10.773-13.751a.77.77 0 0 1 1.307.157l9.966 22.063a.767.767 0 0 1-.988 1.028L.87 39.5zm7.538-22.768l2.14 5.882a.767.767 0 0 1-.105.72L.694 36.458a.385.385 0 0 1-.672-.358L6.96 16.736a.77.77 0 0 1 1.447-.004zm.307-3.624L21.15.235a.77.77 0 0 1 1.322.482l.506 7.642a.767.767 0 0 1-.174.538L12.518 21.373a.77.77 0 0 1-1.316-.224l-2.656-7.244a.767.767 0 0 1 .168-.797z"/>
    </g>
</svg>
