<svg xmlns="http://www.w3.org/2000/svg" width="100" height="48" viewBox="0 0 100 48">
    <g fill="#FFF" fill-rule="nonzero">
        <path d="M27 18.001h4.682l4.441 7.636 4.416-7.636h4.654l-7.048 11.643V37h-4.177v-7.456L27 18zM55.258 37c-1.34.019-2.668-.228-3.904-.725a8.39 8.39 0 0 1-2.925-1.997 8.805 8.805 0 0 1-1.826-2.988 10.614 10.614 0 0 1-.635-3.7 10.994 10.994 0 0 1 .635-3.777 9.042 9.042 0 0 1 1.826-3.039 8.386 8.386 0 0 1 2.925-2.035 9.932 9.932 0 0 1 3.904-.737 9.91 9.91 0 0 1 3.917.737 8.417 8.417 0 0 1 2.912 2.035 9.033 9.033 0 0 1 1.826 3.04 11.01 11.01 0 0 1 .635 3.776 10.63 10.63 0 0 1-.635 3.7 8.798 8.798 0 0 1-1.826 2.989 8.421 8.421 0 0 1-2.912 1.996c-1.24.5-2.573.746-3.917.725zm0-15.64a5.04 5.04 0 0 0-2.382.52 4.462 4.462 0 0 0-1.587 1.4 6.04 6.04 0 0 0-.887 1.996 9.613 9.613 0 0 0-.278 2.314c-.001.75.092 1.497.278 2.225.173.694.474 1.353.887 1.946a4.494 4.494 0 0 0 1.587 1.386 5.036 5.036 0 0 0 2.382.52 5.041 5.041 0 0 0 2.382-.52 4.502 4.502 0 0 0 1.587-1.387 5.922 5.922 0 0 0 .887-1.946c.186-.728.28-1.475.278-2.224a9.613 9.613 0 0 0-.278-2.315 6.04 6.04 0 0 0-.887-1.997 4.47 4.47 0 0 0-1.587-1.398 5.044 5.044 0 0 0-2.382-.52zM71.349 18v15.65h9.07V37H67.258V18h4.091zM89.71 37c-1.339.019-2.668-.228-3.904-.725a8.39 8.39 0 0 1-2.924-1.997 8.805 8.805 0 0 1-1.826-2.988 10.614 10.614 0 0 1-.636-3.7 10.994 10.994 0 0 1 .636-3.777 9.042 9.042 0 0 1 1.826-3.039 8.386 8.386 0 0 1 2.924-2.035 9.932 9.932 0 0 1 3.904-.737 9.91 9.91 0 0 1 3.918.737 8.417 8.417 0 0 1 2.911 2.035 9.033 9.033 0 0 1 1.827 3.04A11.01 11.01 0 0 1 99 27.588a10.63 10.63 0 0 1-.635 3.7 8.798 8.798 0 0 1-1.827 2.989 8.421 8.421 0 0 1-2.911 1.996c-1.24.5-2.574.746-3.918.725zm0-15.64a5.037 5.037 0 0 0-2.381.52 4.46 4.46 0 0 0-1.588 1.4 6.04 6.04 0 0 0-.886 1.996 9.613 9.613 0 0 0-.278 2.314c-.001.75.092 1.497.278 2.225.173.694.474 1.353.886 1.946.407.577.951 1.052 1.588 1.386a5.036 5.036 0 0 0 2.381.52 5.041 5.041 0 0 0 2.383-.52 4.502 4.502 0 0 0 1.587-1.387 5.922 5.922 0 0 0 .886-1.946c.186-.728.28-1.475.278-2.224a9.613 9.613 0 0 0-.278-2.315 6.04 6.04 0 0 0-.886-1.997 4.47 4.47 0 0 0-1.587-1.398 5.044 5.044 0 0 0-2.383-.52zM.87 39.61a.77.77 0 0 1-.32-1.19l10.782-13.79a.77.77 0 0 1 1.31.159l9.974 22.124a.77.77 0 0 1-.989 1.032L.87 39.61zm7.545-22.83l2.142 5.898a.77.77 0 0 1-.105.721L.694 36.56a.385.385 0 0 1-.672-.359l6.944-19.418a.77.77 0 0 1 1.449-.004zm.308-3.635L21.169.235a.77.77 0 0 1 1.323.484l.506 7.664a.77.77 0 0 1-.173.539L12.53 21.432a.77.77 0 0 1-1.318-.224l-2.658-7.264a.77.77 0 0 1 .169-.8z"/>
    </g>
</svg>
