<svg xmlns="http://www.w3.org/2000/svg" width="90" height="61" viewBox="0 0 90 61">
    <defs>
        <linearGradient id="a" x1="180.773%" x2="-51.297%" y1="36.708%" y2="24.33%">
            <stop offset="0%" stop-color="#C12CED"/>
            <stop offset="100%" stop-color="#1DB1FF"/>
        </linearGradient>
    </defs>
    <g fill="none" fill-rule="evenodd">
        <path fill="url(#a)" fill-rule="nonzero" d="M14.84 1.128c.585-.722 1.73-.658 2.197.13l14.074 23.734L2.68 19.33c-.945-.184-1.364-1.251-.763-2.003L14.84 1.128zm-2.113 51.148c-.83-.361-1.003-1.482-.3-2.069L33.29 32.044l-.512 27.032a1.269 1.269 0 0 1-1.764 1.126l-18.287-7.926zM.92 26.6c-.241-.873.52-1.713 1.42-1.536l27.244 4.783-21.33 16.613a1.269 1.269 0 0 1-1.985-.662L.919 26.6z"/>
        <path fill="#FFF" d="M44.89 28.02V36h-3.18v-7.98L34.87 16.2h3.54l4.89 8.64 4.92-8.64h3.54l-6.87 11.82zm13.31-7.08c1.08 0 2.09.2 3.03.6.94.4 1.765.945 2.475 1.635.71.69 1.27 1.5 1.68 2.43.41.93.615 1.935.615 3.015s-.205 2.09-.615 3.03c-.41.94-.97 1.755-1.68 2.445a7.975 7.975 0 0 1-2.49 1.635c-.95.4-1.965.6-3.045.6-1.08 0-2.09-.2-3.03-.6a8.022 8.022 0 0 1-2.475-1.635A7.422 7.422 0 0 1 51 31.65c-.4-.94-.6-1.95-.6-3.03 0-1.08.2-2.085.6-3.015.4-.93.955-1.74 1.665-2.43a7.975 7.975 0 0 1 2.49-1.635c.95-.4 1.965-.6 3.045-.6zm0 2.88c-.66 0-1.275.125-1.845.375-.57.25-1.055.59-1.455 1.02-.4.43-.71.94-.93 1.53-.22.59-.33 1.225-.33 1.905 0 .68.11 1.31.33 1.89a4.4 4.4 0 0 0 2.385 2.52c.55.24 1.155.36 1.815.36.66 0 1.27-.12 1.83-.36a4.36 4.36 0 0 0 1.455-1.005c.41-.43.73-.935.96-1.515.23-.58.345-1.21.345-1.89 0-.68-.115-1.315-.345-1.905-.23-.59-.55-1.1-.96-1.53-.41-.43-.895-.77-1.455-1.02a4.365 4.365 0 0 0-1.8-.375zM71.75 36H68.6V13.5h3.15V36zm10.43-15.06c1.08 0 2.09.2 3.03.6.94.4 1.765.945 2.475 1.635.71.69 1.27 1.5 1.68 2.43.41.93.615 1.935.615 3.015s-.205 2.09-.615 3.03c-.41.94-.97 1.755-1.68 2.445a7.975 7.975 0 0 1-2.49 1.635c-.95.4-1.965.6-3.045.6-1.08 0-2.09-.2-3.03-.6a8.022 8.022 0 0 1-2.475-1.635 7.422 7.422 0 0 1-1.665-2.445c-.4-.94-.6-1.95-.6-3.03 0-1.08.2-2.085.6-3.015.4-.93.955-1.74 1.665-2.43a7.975 7.975 0 0 1 2.49-1.635c.95-.4 1.965-.6 3.045-.6zm0 2.88c-.66 0-1.275.125-1.845.375-.57.25-1.055.59-1.455 1.02-.4.43-.71.94-.93 1.53-.22.59-.33 1.225-.33 1.905 0 .68.11 1.31.33 1.89a4.4 4.4 0 0 0 2.385 2.52c.55.24 1.155.36 1.815.36.66 0 1.27-.12 1.83-.36a4.36 4.36 0 0 0 1.455-1.005c.41-.43.73-.935.96-1.515.23-.58.345-1.21.345-1.89 0-.68-.115-1.315-.345-1.905-.23-.59-.55-1.1-.96-1.53-.41-.43-.895-.77-1.455-1.02a4.365 4.365 0 0 0-1.8-.375z"/>
    </g>
</svg>
