<svg xmlns="http://www.w3.org/2000/svg" width="100" height="48" viewBox="0 0 100 48">
    <g fill="#FFF" fill-rule="nonzero">
        <path d="M28 16.001h4.682l4.441 7.636 4.416-7.636h4.654l-7.048 11.643V35h-4.177v-7.456L28 16zM56.258 35c-1.34.019-2.668-.228-3.904-.725a8.39 8.39 0 0 1-2.925-1.997 8.805 8.805 0 0 1-1.826-2.988 10.614 10.614 0 0 1-.635-3.7 10.994 10.994 0 0 1 .635-3.777 9.042 9.042 0 0 1 1.826-3.039 8.386 8.386 0 0 1 2.925-2.035 9.932 9.932 0 0 1 3.904-.737 9.91 9.91 0 0 1 3.917.737 8.417 8.417 0 0 1 2.912 2.035 9.033 9.033 0 0 1 1.826 3.04 11.01 11.01 0 0 1 .635 3.776 10.63 10.63 0 0 1-.635 3.7 8.798 8.798 0 0 1-1.826 2.989 8.421 8.421 0 0 1-2.912 1.996c-1.24.5-2.573.746-3.917.725zm0-15.64a5.04 5.04 0 0 0-2.382.52 4.462 4.462 0 0 0-1.587 1.4 6.04 6.04 0 0 0-.887 1.996 9.613 9.613 0 0 0-.278 2.314c-.001.75.092 1.497.278 2.225.173.694.474 1.353.887 1.946a4.494 4.494 0 0 0 1.587 1.386 5.036 5.036 0 0 0 2.382.52 5.041 5.041 0 0 0 2.382-.52 4.502 4.502 0 0 0 1.587-1.387 5.922 5.922 0 0 0 .887-1.946c.186-.728.28-1.475.278-2.224a9.613 9.613 0 0 0-.278-2.315 6.04 6.04 0 0 0-.887-1.997 4.47 4.47 0 0 0-1.587-1.398 5.044 5.044 0 0 0-2.382-.52zM72.349 16v15.65h9.07V35H68.258V16h4.091zM90.71 35c-1.339.019-2.668-.228-3.904-.725a8.39 8.39 0 0 1-2.924-1.997 8.805 8.805 0 0 1-1.826-2.988 10.614 10.614 0 0 1-.636-3.7 10.994 10.994 0 0 1 .636-3.777 9.042 9.042 0 0 1 1.826-3.039 8.386 8.386 0 0 1 2.924-2.035 9.932 9.932 0 0 1 3.904-.737 9.91 9.91 0 0 1 3.918.737 8.417 8.417 0 0 1 2.911 2.035 9.033 9.033 0 0 1 1.827 3.04 11.01 11.01 0 0 1 .635 3.776 10.63 10.63 0 0 1-.635 3.7 8.798 8.798 0 0 1-1.827 2.989 8.421 8.421 0 0 1-2.911 1.996c-1.24.5-2.574.746-3.918.725zm0-15.64a5.037 5.037 0 0 0-2.381.52 4.46 4.46 0 0 0-1.588 1.4 6.04 6.04 0 0 0-.886 1.996 9.613 9.613 0 0 0-.278 2.314c-.001.75.092 1.497.278 2.225.173.694.474 1.353.886 1.946.407.577.951 1.052 1.588 1.386a5.036 5.036 0 0 0 2.381.52 5.041 5.041 0 0 0 2.383-.52 4.502 4.502 0 0 0 1.587-1.387 5.922 5.922 0 0 0 .886-1.946c.186-.728.28-1.475.278-2.224a9.613 9.613 0 0 0-.278-2.315 6.04 6.04 0 0 0-.886-1.997 4.47 4.47 0 0 0-1.587-1.398 5.044 5.044 0 0 0-2.383-.52zM35 40.706h.736v4.458H35v-4.458zm0-1.685h.736v.853H35v-.853zm1.83 1.664h.687v.636c.204-.262.42-.45.648-.565.228-.114.48-.171.76-.171.61 0 1.024.222 1.238.665.118.242.177.59.177 1.041v2.873h-.736v-2.823c0-.273-.039-.493-.116-.66-.129-.28-.362-.419-.7-.419-.172 0-.312.019-.422.055a1.086 1.086 0 0 0-.523.368c-.12.148-.2.3-.235.458a3.202 3.202 0 0 0-.055.675v2.346h-.723v-4.479zm5.01 3.074c.021.25.082.443.181.577.182.243.499.364.949.364.268 0 .504-.06.708-.182.203-.121.305-.309.305-.562a.485.485 0 0 0-.245-.44c-.105-.06-.31-.132-.62-.213l-.574-.15c-.368-.095-.638-.201-.813-.318-.31-.204-.466-.485-.466-.845 0-.424.147-.767.44-1.029.294-.262.689-.393 1.185-.393.648 0 1.116.198 1.403.594.18.251.267.521.261.811h-.683a.891.891 0 0 0-.173-.464c-.166-.198-.455-.297-.865-.297-.273 0-.48.055-.621.163a.518.518 0 0 0-.211.431c0 .195.092.351.277.468.108.07.266.131.475.184l.478.122c.52.13.869.258 1.046.38.281.193.422.495.422.908 0 .398-.145.743-.436 1.033-.291.29-.734.435-1.33.435-.64 0-1.094-.152-1.36-.454-.267-.303-.41-.677-.429-1.123h.696zm5.505.9c.338 0 .619-.148.842-.442.224-.294.336-.734.336-1.32 0-.356-.05-.663-.149-.92-.187-.493-.53-.74-1.029-.74-.501 0-.844.261-1.03.782-.099.28-.148.633-.148 1.063 0 .345.05.64.149.882.187.463.53.694 1.03.694zm-1.874-3.953h.704v.594c.145-.203.303-.361.474-.473.244-.167.531-.25.86-.25.489 0 .903.194 1.243.583.34.389.511.944.511 1.666 0 .976-.245 1.673-.736 2.091a1.623 1.623 0 0 1-1.085.398c-.325 0-.597-.074-.817-.222a1.914 1.914 0 0 1-.43-.43v2.287h-.724v-6.244zm4.637 0h.735v4.458h-.735v-4.458zm0-1.685h.735v.853h-.735v-.853zm1.85 1.664h.687v.774c.056-.15.194-.334.414-.55a1.053 1.053 0 0 1 .829-.32c.032.003.087.008.164.017v.794a1.042 1.042 0 0 0-.237-.02c-.364 0-.645.121-.84.365a1.308 1.308 0 0 0-.294.843v2.576h-.724v-4.479zm4.515-.1c.306 0 .602.075.889.224.287.149.505.342.655.579.145.226.242.49.29.79.043.207.064.536.064.987h-3.156c.013.455.116.82.31 1.094.192.274.491.412.896.412.378 0 .68-.13.905-.39.128-.15.22-.324.273-.522h.712a1.6 1.6 0 0 1-.187.55 1.951 1.951 0 0 1-.356.495c-.22.224-.492.374-.816.452a2.389 2.389 0 0 1-.591.067c-.537 0-.991-.203-1.364-.608-.372-.406-.559-.974-.559-1.705 0-.719.188-1.303.563-1.752.376-.449.866-.673 1.472-.673zm1.154 1.982c-.03-.326-.098-.587-.205-.782-.198-.362-.53-.543-.993-.543-.332 0-.611.124-.836.374-.226.25-.345.566-.358.951h2.392zm2.091.41c0 .48.098.881.294 1.204.196.324.51.485.94.485.336 0 .611-.15.827-.45.216-.299.324-.729.324-1.29 0-.565-.111-.984-.334-1.256-.222-.272-.497-.408-.824-.408-.365 0-.66.145-.887.435-.226.29-.34.717-.34 1.28zm1.09-2.371c.33 0 .606.072.828.217.129.084.275.23.439.44V39h.695v6.164h-.651v-.623c-.169.276-.369.475-.6.598a1.66 1.66 0 0 1-.791.184c-.48 0-.896-.21-1.247-.63-.351-.419-.527-.977-.527-1.674 0-.653.16-1.218.48-1.696.321-.478.779-.717 1.374-.717zM66.072 39h.703v2.229c.159-.215.348-.379.567-.491.22-.113.459-.17.716-.17.536 0 .971.192 1.305.575.334.384.5.949.5 1.696 0 .708-.164 1.296-.494 1.765-.33.468-.787.702-1.371.702-.327 0-.603-.082-.828-.246a2.046 2.046 0 0 1-.43-.469v.573h-.668V39zm1.882 5.641c.391 0 .684-.161.878-.485.195-.323.292-.75.292-1.28 0-.47-.097-.86-.292-1.17-.194-.31-.48-.464-.858-.464-.33 0-.619.126-.867.38s-.372.672-.372 1.255c0 .42.051.762.153 1.024.19.494.546.74 1.066.74zm5.444-3.956h.8c-.101.287-.328.943-.679 1.966-.263.77-.483 1.397-.66 1.882-.418 1.143-.713 1.84-.884 2.09-.172.252-.467.377-.885.377a1.67 1.67 0 0 1-.235-.013 1.797 1.797 0 0 1-.203-.046v-.685c.126.036.217.058.273.067.057.008.106.012.15.012.133 0 .232-.023.295-.069a.626.626 0 0 0 .158-.17 21.76 21.76 0 0 0 .326-.803l-1.592-4.608h.82l1.154 3.647 1.162-3.647zm3.812-1.664h.78v2.994l2.88-2.994h1.106l-2.457 2.476 2.525 3.667h-1.042l-2.066-3.082-.945.941v2.141h-.78v-6.143zm8.087 1.664h.8c-.102.287-.328.943-.68 1.966-.262.77-.482 1.397-.659 1.882-.418 1.143-.713 1.84-.884 2.09-.172.252-.467.377-.885.377a1.67 1.67 0 0 1-.235-.013 1.797 1.797 0 0 1-.203-.046v-.685c.126.036.217.058.273.067.056.008.106.012.149.012.134 0 .232-.023.295-.069a.626.626 0 0 0 .16-.17 21.761 21.761 0 0 0 .326-.803l-1.593-4.608h.82l1.154 3.647 1.162-3.647zM86.668 39h.704v2.229c.158-.215.347-.379.567-.491.22-.113.458-.17.716-.17.536 0 .97.192 1.305.575.333.384.5.949.5 1.696 0 .708-.165 1.296-.494 1.765-.33.468-.787.702-1.372.702-.327 0-.603-.082-.828-.246a2.046 2.046 0 0 1-.43-.469v.573h-.668V39zm1.882 5.641c.392 0 .684-.161.879-.485.194-.323.291-.75.291-1.28 0-.47-.097-.86-.291-1.17-.195-.31-.48-.464-.859-.464-.33 0-.618.126-.866.38s-.372.672-.372 1.255c0 .42.05.762.153 1.024.19.494.545.74 1.065.74zm4.548-4.056c.306 0 .602.075.889.224.287.149.505.342.655.579.145.226.242.49.29.79.043.207.064.536.064.987H91.84c.013.455.116.82.31 1.094.192.274.491.412.896.412.378 0 .68-.13.905-.39.128-.15.22-.324.273-.522h.712a1.6 1.6 0 0 1-.187.55 1.951 1.951 0 0 1-.356.495c-.22.224-.492.374-.816.452a2.389 2.389 0 0 1-.591.067c-.537 0-.991-.203-1.364-.608-.372-.406-.559-.974-.559-1.705 0-.719.188-1.303.563-1.752.376-.449.866-.673 1.472-.673zm1.154 1.982c-.03-.326-.098-.587-.205-.782-.198-.362-.53-.543-.993-.543-.332 0-.611.124-.836.374-.226.25-.345.566-.358.951h2.392zm1.653-1.882h.688v.774c.056-.15.194-.334.414-.55a1.053 1.053 0 0 1 .828-.32l.165.017v.794a1.042 1.042 0 0 0-.237-.02c-.365 0-.645.121-.84.365a1.308 1.308 0 0 0-.294.843v2.576h-.724v-4.479zM.87 39.61a.77.77 0 0 1-.32-1.19l10.782-13.79a.77.77 0 0 1 1.31.159l9.974 22.124a.77.77 0 0 1-.989 1.032L.87 39.61zm7.545-22.83l2.142 5.898a.77.77 0 0 1-.105.721L.694 36.56a.385.385 0 0 1-.672-.359l6.944-19.418a.77.77 0 0 1 1.449-.004zm.308-3.635L21.169.235a.77.77 0 0 1 1.323.484l.506 7.664a.77.77 0 0 1-.173.539L12.53 21.432a.77.77 0 0 1-1.318-.224l-2.658-7.264a.77.77 0 0 1 .169-.8z"/>
    </g>
</svg>
